<?xml version="1.0" encoding="utf-8"?>
<svg version="1.1" xmlns:xlink="http://www.w3.org/1999/xlink" width="76px" height="74px" xmlns="http://www.w3.org/2000/svg">
  <g transform="matrix(1 0 0 1 -736 -186 )">
    <path d="M 736 186  L 812 186  L 812 260  L 736 260  L 736 186  " fill-rule="nonzero" fill="#cccccc" stroke="none" />
    <path d="M 741 191  L 807 191  L 807 255  L 741 255  L 741 191  " fill-rule="nonzero" fill="#ffffff" stroke="none" />
    <path d="M 781.07 208.2  C 777.962 208.2  775.52 205.758  775.52 202.65  C 775.52 199.542  777.962 197.1  781.07 197.1  C 784.178 197.1  786.62 199.542  786.62 202.65  C 786.62 205.758  784.178 208.2  781.07 208.2  " fill-rule="nonzero" fill="#cccccc" stroke="none" />
    <path d="M 743 253  L 743 220  L 758.5 205  L 780.2 217.947368421053  L 792.6 214  L 805 217.947368421053  L 805 253  L 743 253  " fill-rule="nonzero" fill="#169bd5" stroke="none" />
  </g>
</svg>