<?xml version="1.0" encoding="utf-8"?>
<svg version="1.1" xmlns:xlink="http://www.w3.org/1999/xlink" width="24px" height="25px" xmlns="http://www.w3.org/2000/svg">
  <g transform="matrix(1 0 0 1 -575 -966 )">
    <path d="M 18.4447552447552 12.5  L 22.9090909090909 15.0065104166667  C 23.4237762237762 15.2886284722222  23.7566433566434 15.7090928819444  23.9076923076923 16.2679036458333  C 24.0587412587413 16.8267144097222  23.9888111888112 17.3556857638889  23.6979020979021 17.8548177083333  L 22.6237762237762 19.6451822916667  C 22.3328671328671 20.1443142361111  21.8993006993007 20.4671223958333  21.3230769230769 20.6136067708333  C 20.7468531468531 20.7600911458333  20.2013986013986 20.6922743055556  19.6867132867133 20.41015625  L 15.2223776223776 17.919921875  L 15.2223776223776 22.9166666666667  C 15.2223776223776 23.4809027777778  15.0097902097902 23.9691840277778  14.5846153846154 24.3815104166667  C 14.1594405594406 24.7938368055556  13.6559440559441 25  13.0741258741259 25  L 10.9258741258741 25  C 10.3440559440559 25  9.84055944055944 24.7938368055556  9.41538461538462 24.3815104166667  C 8.99020979020979 23.9691840277778  8.77762237762238 23.4809027777778  8.77762237762238 22.9166666666667  L 8.77762237762238 17.919921875  L 4.31328671328671 20.41015625  C 3.7986013986014 20.6922743055556  3.25314685314685 20.7600911458333  2.67692307692308 20.6136067708333  C 2.1006993006993 20.4671223958333  1.66713286713287 20.1443142361111  1.37622377622378 19.6451822916667  L 0.302097902097902 17.8548177083333  C 0.0111888111888113 17.3556857638889  -0.0587412587412587 16.8267144097222  0.0923076923076923 16.2679036458333  C 0.243356643356643 15.7090928819444  0.576223776223776 15.2886284722222  1.09090909090909 15.0065104166667  L 5.55524475524476 12.5  L 1.09090909090909 9.99348958333333  C 0.576223776223776 9.71137152777778  0.243356643356643 9.29090711805556  0.0923076923076923 8.73209635416667  C -0.0587412587412587 8.17328559027778  0.0111888111888113 7.64431423611111  0.302097902097902 7.14518229166667  L 1.37622377622378 5.35481770833333  C 1.66713286713287 4.85568576388889  2.1006993006993 4.53287760416667  2.67692307692308 4.38639322916667  C 3.25314685314685 4.23990885416667  3.7986013986014 4.30772569444444  4.31328671328671 4.58984375  L 8.77762237762238 7.080078125  L 8.77762237762238 2.08333333333333  C 8.77762237762238 1.51909722222222  8.99020979020979 1.03081597222222  9.41538461538462 0.618489583333334  C 9.84055944055944 0.206163194444442  10.3440559440559 0  10.9258741258741 0  L 13.0741258741259 0  C 13.6559440559441 0  14.1594405594406 0.206163194444442  14.5846153846154 0.618489583333334  C 15.0097902097902 1.03081597222222  15.2223776223776 1.51909722222222  15.2223776223776 2.08333333333333  L 15.2223776223776 7.080078125  L 19.6867132867133 4.58984375  C 20.2013986013986 4.30772569444444  20.7468531468531 4.23990885416667  21.3230769230769 4.38639322916667  C 21.8993006993007 4.53287760416667  22.3328671328671 4.85568576388889  22.6237762237762 5.35481770833333  L 23.6979020979021 7.14518229166667  C 23.9888111888112 7.64431423611111  24.0587412587413 8.17328559027778  23.9076923076923 8.73209635416667  C 23.7566433566434 9.29090711805556  23.4237762237762 9.71137152777778  22.9090909090909 9.99348958333333  L 18.4447552447552 12.5  Z " fill-rule="nonzero" fill="#000000" stroke="none" transform="matrix(1 0 0 1 575 966 )" />
  </g>
</svg>