<?xml version="1.0" encoding="utf-8"?>
<svg version="1.1" xmlns:xlink="http://www.w3.org/1999/xlink" width="49px" height="42px" xmlns="http://www.w3.org/2000/svg">
  <g transform="matrix(1 0 0 1 -531 -8 )">
    <path d="M 531 8  L 580 8  L 580 50  L 531 50  L 531 8  " fill-rule="nonzero" fill="#cccccc" stroke="none" />
    <path d="M 534 11  L 577 11  L 577 47  L 534 47  L 534 11  " fill-rule="nonzero" fill="#ffffff" stroke="none" />
    <path d="M 559.63 20.6  C 557.866 20.6  556.48 19.214  556.48 17.45  C 556.48 15.686  557.866 14.3  559.63 14.3  C 561.394 14.3  562.78 15.686  562.78 17.45  C 562.78 19.214  561.394 20.6  559.63 20.6  " fill-rule="nonzero" fill="#cccccc" stroke="none" />
    <path d="M 535 46  L 535 27.3  L 545.25 18.8  L 559.6 28.5142857142857  L 567.8 23.9  L 576 28.5142857142857  L 576 46  L 535 46  " fill-rule="nonzero" fill="#169bd5" stroke="none" />
  </g>
</svg>