<?xml version="1.0" encoding="utf-8"?>
<svg version="1.1" xmlns:xlink="http://www.w3.org/1999/xlink" width="201px" height="170px" xmlns="http://www.w3.org/2000/svg">
  <g transform="matrix(1 0 0 1 -685 -133 )">
    <path d="M 685 133  L 886 133  L 886 303  L 685 303  L 685 133  " fill-rule="nonzero" fill="#cccccc" stroke="none" />
    <path d="M 697 145  L 874 145  L 874 291  L 697 291  L 697 145  " fill-rule="nonzero" fill="#ffffff" stroke="none" />
    <path d="M 802.27 184  C 795.13 184  789.52 178.39  789.52 171.25  C 789.52 164.11  795.13 158.5  802.27 158.5  C 809.41 158.5  815.02 164.11  815.02 171.25  C 815.02 178.39  809.41 184  802.27 184  " fill-rule="nonzero" fill="#cccccc" stroke="none" />
    <path d="M 702 287  L 702 211.65  L 744 177.4  L 802.8 217.477611940299  L 836.4 197.95  L 870 217.477611940299  L 870 287  L 702 287  " fill-rule="nonzero" fill="#169bd5" stroke="none" />
  </g>
</svg>